<?xml version="1.0" standalone="no"?>
<!DOCTYPE svg PUBLIC "-//W3C//DTD SVG 20010904//EN"
 "http://www.w3.org/TR/2001/REC-SVG-20010904/DTD/svg10.dtd">
<svg version="1.0" xmlns="http://www.w3.org/2000/svg"
 width="373.000000pt" height="372.000000pt" viewBox="0 0 373.000000 372.000000"
 preserveAspectRatio="xMidYMid meet">

<g transform="translate(0.000000,372.000000) scale(0.100000,-0.100000)"
fill="#000000" stroke="none">
<path d="M950 3690 c0 -34 56 -175 92 -231 102 -157 279 -295 524 -407 333
-153 630 -215 1024 -214 245 0 313 7 604 63 130 25 216 37 227 32 35 -16 299
-324 299 -347 0 -3 -8 -6 -18 -6 -62 0 -264 -94 -406 -187 -182 -121 -245
-181 -461 -440 -37 -46 -72 -83 -77 -83 -10 0 -10 268 1 334 6 37 16 57 39 77
17 15 28 29 26 32 -11 10 -80 -16 -105 -40 l-26 -24 -38 25 c-51 35 -59 33
-30 -10 25 -37 25 -38 25 -285 l0 -249 -36 -50 c-34 -47 -52 -65 -39 -37 3 6
-2 1 -12 -13 -10 -13 -50 -63 -89 -110 -131 -159 -185 -235 -231 -327 -39 -78
-50 -93 -70 -93 -30 0 -136 -53 -349 -176 -203 -117 -802 -476 -861 -516 -23
-15 -45 -28 -48 -28 -4 0 -19 -8 -33 -19 -23 -16 -189 -119 -342 -211 -25 -15
-90 -55 -145 -89 l-99 -61 84 0 85 0 200 121 c110 67 214 130 231 139 17 10
64 38 105 63 180 108 526 311 659 387 80 45 171 98 204 116 32 19 118 64 192
101 l133 66 35 -24 c129 -90 264 -191 411 -308 93 -75 184 -147 202 -161 18
-14 76 -59 130 -101 54 -41 113 -81 131 -88 56 -23 113 -11 372 82 69 24 155
50 193 57 l67 12 0 69 0 68 -36 -15 c-20 -8 -97 -35 -172 -58 -179 -57 -231
-78 -325 -132 l-77 -45 -63 48 c-35 26 -117 90 -183 141 -65 50 -180 138 -253
195 -118 89 -143 114 -203 197 -67 94 -100 130 -147 161 l-24 15 38 70 c92
166 332 494 361 494 9 0 35 -14 60 -30 l44 -31 44 33 c46 34 60 60 28 51 -10
-2 -30 5 -45 17 -22 18 -27 30 -27 65 0 41 7 52 88 149 l87 106 3 -157 c2
-128 0 -160 -13 -180 -18 -26 -22 -23 67 -48 32 -9 60 -21 63 -26 4 -5 12 -9
20 -9 17 0 165 100 165 112 0 13 -13 9 -51 -16 l-35 -24 -55 21 c-53 22 -54
23 -57 67 l-3 45 86 60 c48 33 97 68 111 78 l24 19 -62 75 c-35 41 -68 77 -74
80 -7 2 -44 -12 -84 -32 -81 -41 -81 -37 3 57 133 152 474 366 636 399 l61 13
0 61 c0 48 -4 63 -19 72 -32 20 -252 264 -313 348 -97 132 -108 145 -149 170
-21 14 -103 47 -181 74 -79 27 -172 61 -208 76 -109 45 -479 230 -579 290 -69
41 -103 55 -124 53 -27 -3 -12 -14 124 -99 205 -129 270 -160 629 -306 174
-70 270 -114 270 -123 0 -15 -168 -45 -255 -44 -98 0 -115 5 -390 124 -238
103 -558 279 -742 407 -49 34 -71 43 -104 43 l-41 0 58 -43 c57 -41 160 -107
309 -197 77 -46 322 -167 573 -281 l162 -74 -42 -8 c-64 -12 -306 0 -443 23
-196 32 -365 90 -538 186 -186 103 -276 199 -313 334 -17 58 -18 60 -51 60
-18 0 -33 -2 -33 -3 0 -2 9 -30 20 -62 28 -82 68 -140 152 -222 107 -102 196
-156 390 -234 361 -146 663 -166 1158 -75 74 14 155 27 179 28 l45 3 42 -70
c23 -38 43 -75 43 -81 1 -19 -98 -50 -244 -78 -348 -64 -951 -29 -1275 76
-410 132 -702 344 -803 584 -14 32 -28 76 -32 97 -6 30 -11 37 -31 37 -17 0
-24 -6 -24 -20z m2148 -1679 c28 -33 52 -64 52 -69 0 -8 -103 -82 -115 -82 -3
0 -5 47 -5 105 0 58 3 105 8 105 4 0 31 -27 60 -59z"/>
<path d="M193 2345 c-18 -8 -42 -29 -53 -47 -24 -40 -27 -98 -5 -98 10 0 15
10 15 30 0 45 28 55 111 40 37 -7 81 -10 98 -7 34 7 40 -3 14 -24 -27 -23 -43
-75 -43 -137 l0 -59 -50 -5 c-54 -5 -98 -34 -80 -52 7 -7 14 -6 22 2 33 33
118 -9 118 -58 0 -18 -4 -20 -32 -15 -34 6 -82 -12 -79 -30 1 -5 13 -9 27 -7
35 5 71 -22 79 -57 9 -44 -19 -94 -86 -153 -33 -28 -57 -53 -55 -56 3 -2 42
11 88 30 75 30 93 33 183 33 93 0 105 -2 168 -33 l67 -33 60 52 c57 49 71 69
51 69 -5 0 -14 -7 -21 -15 -17 -21 -33 -19 -93 13 -44 23 -64 27 -132 27 -44
0 -93 -4 -110 -8 -27 -7 -22 0 42 64 99 99 107 125 98 313 -5 98 -4 150 4 164
6 11 31 28 56 37 24 10 42 22 38 27 -10 17 -95 0 -136 -28 -62 -41 -70 -73
-62 -243 6 -132 5 -151 -13 -198 -23 -60 -69 -123 -115 -155 l-32 -22 27 35
c65 87 81 165 66 330 -10 114 -10 132 6 173 10 25 31 57 47 71 41 34 28 50
-19 25 -46 -25 -64 -25 -137 0 -68 23 -89 24 -132 5z"/>
<path d="M2486 2305 c-22 -7 -48 -23 -59 -34 -20 -19 -20 -19 -59 6 -46 31
-61 23 -27 -13 24 -25 24 -27 27 -277 3 -241 2 -252 -18 -279 -16 -21 -17 -28
-6 -28 8 0 37 -16 66 -35 55 -37 55 -37 113 8 35 27 43 52 12 41 -7 -3 -25 2
-39 11 l-26 17 0 244 c0 260 6 299 49 326 21 13 28 28 14 28 -5 -1 -26 -7 -47
-15z"/>
<path d="M1640 2163 c-38 -48 -70 -91 -70 -95 0 -5 11 -8 25 -8 l25 0 0 -157
c0 -123 -4 -165 -16 -188 -10 -20 -12 -31 -4 -33 6 -2 34 -19 62 -38 l51 -34
54 40 c29 23 51 46 47 51 -4 6 -10 6 -19 -1 -10 -8 -21 -7 -44 5 l-31 16 0
169 0 170 50 0 c49 0 50 1 50 30 0 29 -1 30 -51 30 l-52 0 5 65 c3 36 2 65 -3
65 -5 0 -40 -39 -79 -87z"/>
<path d="M1010 2110 c-19 -11 -50 -19 -67 -20 -18 0 -33 -2 -33 -5 0 -3 13
-34 29 -69 l28 -63 -34 -48 c-82 -112 -85 -203 -9 -274 29 -27 31 -26 121 47
49 41 64 42 65 1 0 -8 13 -28 29 -43 l30 -29 50 43 c58 48 64 62 22 54 l-29
-6 -7 78 c-11 108 -1 254 20 294 17 33 13 52 -7 32 -17 -17 -40 -15 -105 8
-68 24 -60 24 -103 0z m23 -70 l67 -22 0 -59 c0 -32 -2 -59 -5 -59 -2 0 -25
10 -51 23 -38 18 -51 32 -75 79 -33 65 -34 69 -16 63 6 -2 42 -13 80 -25z m66
-230 c0 -63 -1 -66 -36 -93 -35 -26 -37 -26 -56 -10 -45 41 -60 122 -36 191
l10 30 59 -26 59 -27 0 -65z"/>
<path d="M2010 2110 c-19 -10 -50 -19 -67 -20 -18 0 -33 -4 -33 -10 0 -5 12
-34 27 -64 30 -61 31 -56 -32 -156 -54 -84 -47 -167 19 -229 l26 -24 72 56 73
56 10 -27 c14 -36 45 -82 57 -82 12 0 108 81 108 91 0 5 -13 6 -29 3 -37 -8
-41 6 -41 176 0 113 4 142 20 179 23 49 21 58 -8 40 -17 -11 -31 -10 -79 5
-32 9 -65 19 -73 21 -8 3 -31 -4 -50 -15z m23 -70 l67 -22 0 -60 c0 -33 -4
-58 -8 -56 -104 44 -101 42 -127 99 -29 65 -30 70 -12 64 6 -2 42 -13 80 -25z
m67 -229 c0 -55 -2 -61 -36 -91 l-37 -32 -29 29 c-46 46 -55 110 -26 185 l10
27 59 -30 59 -29 0 -59z"/>
<path d="M3338 2086 c-46 -42 -55 -67 -17 -43 32 20 39 -7 39 -164 0 -112 -3
-150 -15 -165 -20 -26 -19 -29 13 -43 15 -7 44 -24 64 -38 l37 -25 61 48 c53
44 71 64 55 64 -3 0 -17 -7 -30 -16 -22 -14 -26 -14 -55 2 l-30 18 0 141 c0
139 0 142 26 166 l25 24 32 -38 32 -37 38 32 38 33 -39 45 -39 44 -54 -47
c-44 -39 -55 -44 -57 -30 -5 22 -52 73 -66 73 -6 -1 -32 -20 -58 -44z"/>
</g>
</svg>
